# xmcd CD database file
#
# Track frame offsets:
#	150
#	21135
#	52500
#	69059
#	102343
#	129884
#	175125
#	201142
#	238792
#
# Disc length: 3620 seconds
#
# Revision: 0
# Processed by: cddbd v1.5.2PL0 Copyright (c) Steve Scherf et al.
# Submitted via: CDex 1.70beta2
#
DISCID=660e2209
DTITLE=Aaron Parks Trio - The Promise
DYEAR=1999
DGENRE=Jazz
TTITLE0=Billie's Bounce
TTITLE1=Everything Happens To Me
TTITLE2=Early Entry
TTITLE3=Double Tall Latte
TTITLE4=Autumn Leaves
TTITLE5=Footprints
TTITLE6=Well You Needn't
TTITLE7=It Could Happen To You
TTITLE8=The Promise
EXTD=YEAR: 1999
EXTT0=
EXTT1=
EXTT2=
EXTT3=
EXTT4=
EXTT5=
EXTT6=
EXTT7=
EXTT8=
PLAYORDER=
